<?xml version="1.0" encoding="utf-8"?>
<!-- Generator: Adobe Illustrator 26.0.1, SVG Export Plug-In . SVG Version: 6.00 Build 0)  -->
<svg version="1.1" id="Capa_1" xmlns="http://www.w3.org/2000/svg" xmlns:xlink="http://www.w3.org/1999/xlink" x="0px" y="0px"
	 viewBox="0 0 279.9 279.9" style="enable-background:new 0 0 279.9 279.9;" xml:space="preserve">
<style type="text/css">
	.st0{fill:#FFFFFF;}
	.st1{fill:none;stroke:#FFFFFF;stroke-width:8;stroke-miterlimit:10;}
</style>
<g>
	<path class="st0" d="M157.8,81.1c-1,0-1.9,0.4-2.7,1.2l-54.5,54.5c-0.8,0.8-1.2,1.7-1.2,2.7c0,1,0.4,1.9,1.2,2.7l54.5,54.5
		c0.8,0.8,1.7,1.2,2.7,1.2c1,0,1.9-0.4,2.7-1.2l5.8-5.8c0.8-0.8,1.2-1.7,1.2-2.7c0-1-0.4-1.9-1.2-2.7l-46-46l46-46
		c0.8-0.8,1.2-1.7,1.2-2.7c0-1-0.4-1.9-1.2-2.7l-5.8-5.8C159.7,81.5,158.8,81.1,157.8,81.1z"/>
</g>
<circle class="st1" cx="140" cy="140" r="133.7"/>
</svg>
