<?xml version="1.0" encoding="utf-8"?>
<!-- Generator: Adobe Illustrator 26.0.1, SVG Export Plug-In . SVG Version: 6.00 Build 0)  -->
<svg version="1.1" id="Capa_1" xmlns="http://www.w3.org/2000/svg" xmlns:xlink="http://www.w3.org/1999/xlink" x="0px" y="0px"
	 viewBox="0 0 279.9 279.9" style="enable-background:new 0 0 279.9 279.9;" xml:space="preserve">
<style type="text/css">
	.st0{fill:#FFFFFF;}
	.st1{fill:none;stroke:#FFFFFF;stroke-width:8;stroke-miterlimit:10;}
</style>
<g>
	<path class="st0" d="M120.4,82.3l-5.8,5.8c-0.8,0.8-1.2,1.7-1.2,2.7c0,1,0.4,1.9,1.2,2.7l46,46l-46,46c-0.8,0.8-1.2,1.7-1.2,2.7
		c0,1,0.4,1.9,1.2,2.7l5.8,5.8c0.8,0.8,1.7,1.2,2.7,1.2c1,0,1.9-0.4,2.7-1.2l54.5-54.5c0.8-0.8,1.2-1.7,1.2-2.7c0-1-0.4-1.9-1.2-2.7
		l-54.5-54.5c-0.8-0.8-1.7-1.2-2.7-1.2C122.1,81.1,121.2,81.5,120.4,82.3z"/>
</g>
<circle class="st1" cx="140" cy="140" r="133.7"/>
</svg>
